<svg width="485" height="271" viewBox="0 0 485 271" fill="none" xmlns="http://www.w3.org/2000/svg">
<rect x="42.8706" width="1" height="271" fill="#EEEEF7"/>
<rect x="105.871" width="1" height="271" fill="#EEEEF7"/>
<rect x="168.871" width="1" height="271" fill="#EEEEF7"/>
<rect x="231.871" width="1" height="271" fill="#EEEEF7"/>
<rect x="294.871" width="1" height="271" fill="#EEEEF7"/>
<rect x="357.871" width="1" height="271" fill="#EEEEF7"/>
<rect x="420.871" width="1" height="271" fill="#EEEEF7"/>
<rect x="483.871" width="1" height="271" fill="#EEEEF7"/>
<path d="M2.80811 20.7227L3.2417 16.4688H7.61279V17.4707H4.16162L3.90381 19.7969C4.32178 19.5508 4.79639 19.4277 5.32764 19.4277C6.10498 19.4277 6.72217 19.6855 7.1792 20.2012C7.63623 20.7129 7.86475 21.4062 7.86475 22.2812C7.86475 23.1602 7.62646 23.8535 7.1499 24.3613C6.67725 24.8652 6.01514 25.1172 5.16357 25.1172C4.40967 25.1172 3.79443 24.9082 3.31787 24.4902C2.84131 24.0723 2.56982 23.4941 2.50342 22.7559H3.52881C3.59521 23.2441 3.76904 23.6133 4.05029 23.8633C4.33154 24.1094 4.70264 24.2324 5.16357 24.2324C5.66748 24.2324 6.06201 24.0605 6.34717 23.7168C6.63623 23.373 6.78076 22.8984 6.78076 22.293C6.78076 21.7227 6.62451 21.2656 6.31201 20.9219C6.00342 20.5742 5.59131 20.4004 5.07568 20.4004C4.60303 20.4004 4.23193 20.5039 3.9624 20.7109L3.67529 20.9453L2.80811 20.7227ZM13.6245 22.1348H14.8081V23.0195H13.6245V25H12.5347V23.0195H8.6499V22.3809L12.4702 16.4688H13.6245V22.1348ZM9.88037 22.1348H12.5347V17.9512L12.4058 18.1855L9.88037 22.1348ZM18.1538 21.8184H15.2944V20.9336H18.1538V21.8184ZM23.3569 16.4629V17.3828H23.1577C22.314 17.3984 21.6421 17.6484 21.1421 18.1328C20.6421 18.6172 20.353 19.2988 20.2749 20.1777C20.7241 19.6621 21.3374 19.4043 22.1147 19.4043C22.8569 19.4043 23.4487 19.666 23.8901 20.1895C24.3354 20.7129 24.5581 21.3887 24.5581 22.2168C24.5581 23.0957 24.3179 23.7988 23.8374 24.3262C23.3608 24.8535 22.7202 25.1172 21.9155 25.1172C21.0991 25.1172 20.437 24.8047 19.9292 24.1797C19.4214 23.5508 19.1675 22.7422 19.1675 21.7539V21.3379C19.1675 19.7676 19.5015 18.5684 20.1694 17.7402C20.8413 16.9082 21.8394 16.4824 23.1636 16.4629H23.3569ZM21.9331 20.3066C21.562 20.3066 21.2202 20.418 20.9077 20.6406C20.5952 20.8633 20.3784 21.1426 20.2573 21.4785V21.877C20.2573 22.5801 20.4155 23.1465 20.7319 23.5762C21.0483 24.0059 21.4429 24.2207 21.9155 24.2207C22.4038 24.2207 22.7866 24.041 23.064 23.6816C23.3452 23.3223 23.4858 22.8516 23.4858 22.2695C23.4858 21.6836 23.3433 21.2109 23.0581 20.8516C22.7769 20.4883 22.4019 20.3066 21.9331 20.3066ZM26.3394 20.7227L26.7729 16.4688H31.144V17.4707H27.6929L27.4351 19.7969C27.853 19.5508 28.3276 19.4277 28.8589 19.4277C29.6362 19.4277 30.2534 19.6855 30.7104 20.2012C31.1675 20.7129 31.396 21.4062 31.396 22.2812C31.396 23.1602 31.1577 23.8535 30.6812 24.3613C30.2085 24.8652 29.5464 25.1172 28.6948 25.1172C27.9409 25.1172 27.3257 24.9082 26.8491 24.4902C26.3726 24.0723 26.1011 23.4941 26.0347 22.7559H27.0601C27.1265 23.2441 27.3003 23.6133 27.5815 23.8633C27.8628 24.1094 28.2339 24.2324 28.6948 24.2324C29.1987 24.2324 29.5933 24.0605 29.8784 23.7168C30.1675 23.373 30.312 22.8984 30.312 22.293C30.312 21.7227 30.1558 21.2656 29.8433 20.9219C29.5347 20.5742 29.1226 20.4004 28.6069 20.4004C28.1343 20.4004 27.7632 20.5039 27.4937 20.7109L27.2065 20.9453L26.3394 20.7227Z" fill="#8794BA"/>
<path d="M6.88623 78.1348H8.06982V79.0195H6.88623V81H5.79639V79.0195H1.91162V78.3809L5.73193 72.4688H6.88623V78.1348ZM3.14209 78.1348H5.79639V73.9512L5.66748 74.1855L3.14209 78.1348ZM9.54639 76.7227L9.97998 72.4688H14.3511V73.4707H10.8999L10.6421 75.7969C11.0601 75.5508 11.5347 75.4277 12.0659 75.4277C12.8433 75.4277 13.4604 75.6855 13.9175 76.2012C14.3745 76.7129 14.603 77.4062 14.603 78.2812C14.603 79.1602 14.3647 79.8535 13.8882 80.3613C13.4155 80.8652 12.7534 81.1172 11.9019 81.1172C11.1479 81.1172 10.5327 80.9082 10.0562 80.4902C9.57959 80.0723 9.30811 79.4941 9.2417 78.7559H10.2671C10.3335 79.2441 10.5073 79.6133 10.7886 79.8633C11.0698 80.1094 11.4409 80.2324 11.9019 80.2324C12.4058 80.2324 12.8003 80.0605 13.0854 79.7168C13.3745 79.373 13.519 78.8984 13.519 78.293C13.519 77.7227 13.3628 77.2656 13.0503 76.9219C12.7417 76.5742 12.3296 76.4004 11.814 76.4004C11.3413 76.4004 10.9702 76.5039 10.7007 76.7109L10.4136 76.9453L9.54639 76.7227ZM18.1538 77.8184H15.2944V76.9336H18.1538V77.8184ZM19.6011 76.7227L20.0347 72.4688H24.4058V73.4707H20.9546L20.6968 75.7969C21.1147 75.5508 21.5894 75.4277 22.1206 75.4277C22.8979 75.4277 23.5151 75.6855 23.9722 76.2012C24.4292 76.7129 24.6577 77.4062 24.6577 78.2812C24.6577 79.1602 24.4194 79.8535 23.9429 80.3613C23.4702 80.8652 22.8081 81.1172 21.9565 81.1172C21.2026 81.1172 20.5874 80.9082 20.1108 80.4902C19.6343 80.0723 19.3628 79.4941 19.2964 78.7559H20.3218C20.3882 79.2441 20.562 79.6133 20.8433 79.8633C21.1245 80.1094 21.4956 80.2324 21.9565 80.2324C22.4604 80.2324 22.855 80.0605 23.1401 79.7168C23.4292 79.373 23.5737 78.8984 23.5737 78.293C23.5737 77.7227 23.4175 77.2656 23.105 76.9219C22.7964 76.5742 22.3843 76.4004 21.8687 76.4004C21.396 76.4004 21.0249 76.5039 20.7554 76.7109L20.4683 76.9453L19.6011 76.7227ZM30.4175 78.1348H31.6011V79.0195H30.4175V81H29.3276V79.0195H25.4429V78.3809L29.2632 72.4688H30.4175V78.1348ZM26.6733 78.1348H29.3276V73.9512L29.1987 74.1855L26.6733 78.1348Z" fill="#8794BA"/>
<path d="M3.88623 132.207H4.70068C5.2124 132.199 5.61475 132.064 5.90771 131.803C6.20068 131.541 6.34717 131.188 6.34717 130.742C6.34717 129.742 5.84912 129.242 4.85303 129.242C4.38428 129.242 4.00928 129.377 3.72803 129.646C3.45068 129.912 3.31201 130.266 3.31201 130.707H2.22803C2.22803 130.031 2.47412 129.471 2.96631 129.025C3.4624 128.576 4.09131 128.352 4.85303 128.352C5.65771 128.352 6.28857 128.564 6.74561 128.99C7.20264 129.416 7.43115 130.008 7.43115 130.766C7.43115 131.137 7.31006 131.496 7.06787 131.844C6.82959 132.191 6.50342 132.451 6.08936 132.623C6.55811 132.771 6.91943 133.018 7.17334 133.361C7.43115 133.705 7.56006 134.125 7.56006 134.621C7.56006 135.387 7.31006 135.994 6.81006 136.443C6.31006 136.893 5.65967 137.117 4.85889 137.117C4.05811 137.117 3.40576 136.9 2.90186 136.467C2.40186 136.033 2.15186 135.461 2.15186 134.75H3.2417C3.2417 135.199 3.38818 135.559 3.68115 135.828C3.97412 136.098 4.3667 136.232 4.85889 136.232C5.38232 136.232 5.78271 136.096 6.06006 135.822C6.3374 135.549 6.47607 135.156 6.47607 134.645C6.47607 134.148 6.32373 133.768 6.01904 133.502C5.71436 133.236 5.2749 133.1 4.70068 133.092H3.88623V132.207ZM9.54639 132.723L9.97998 128.469H14.3511V129.471H10.8999L10.6421 131.797C11.0601 131.551 11.5347 131.428 12.0659 131.428C12.8433 131.428 13.4604 131.686 13.9175 132.201C14.3745 132.713 14.603 133.406 14.603 134.281C14.603 135.16 14.3647 135.854 13.8882 136.361C13.4155 136.865 12.7534 137.117 11.9019 137.117C11.1479 137.117 10.5327 136.908 10.0562 136.49C9.57959 136.072 9.30811 135.494 9.2417 134.756H10.2671C10.3335 135.244 10.5073 135.613 10.7886 135.863C11.0698 136.109 11.4409 136.232 11.9019 136.232C12.4058 136.232 12.8003 136.061 13.0854 135.717C13.3745 135.373 13.519 134.898 13.519 134.293C13.519 133.723 13.3628 133.266 13.0503 132.922C12.7417 132.574 12.3296 132.4 11.814 132.4C11.3413 132.4 10.9702 132.504 10.7007 132.711L10.4136 132.945L9.54639 132.723ZM18.1538 133.818H15.2944V132.934H18.1538V133.818ZM23.6792 134.135H24.8628V135.02H23.6792V137H22.5894V135.02H18.7046V134.381L22.5249 128.469H23.6792V134.135ZM19.9351 134.135H22.5894V129.951L22.4604 130.186L19.9351 134.135ZM30.4175 134.135H31.6011V135.02H30.4175V137H29.3276V135.02H25.4429V134.381L29.2632 128.469H30.4175V134.135ZM26.6733 134.135H29.3276V129.951L29.1987 130.186L26.6733 134.135Z" fill="#8794BA"/>
<path d="M7.8999 193H2.31006V192.221L5.26318 188.939C5.70068 188.443 6.00146 188.041 6.16553 187.732C6.3335 187.42 6.41748 187.098 6.41748 186.766C6.41748 186.32 6.28271 185.955 6.01318 185.67C5.74365 185.385 5.38428 185.242 4.93506 185.242C4.396 185.242 3.97607 185.396 3.67529 185.705C3.37842 186.01 3.22998 186.436 3.22998 186.982H2.146C2.146 186.197 2.39795 185.562 2.90186 185.078C3.40967 184.594 4.0874 184.352 4.93506 184.352C5.72803 184.352 6.35498 184.561 6.81592 184.979C7.27686 185.393 7.50732 185.945 7.50732 186.637C7.50732 187.477 6.97217 188.477 5.90186 189.637L3.6167 192.115H7.8999V193ZM9.54639 188.723L9.97998 184.469H14.3511V185.471H10.8999L10.6421 187.797C11.0601 187.551 11.5347 187.428 12.0659 187.428C12.8433 187.428 13.4604 187.686 13.9175 188.201C14.3745 188.713 14.603 189.406 14.603 190.281C14.603 191.16 14.3647 191.854 13.8882 192.361C13.4155 192.865 12.7534 193.117 11.9019 193.117C11.1479 193.117 10.5327 192.908 10.0562 192.49C9.57959 192.072 9.30811 191.494 9.2417 190.756H10.2671C10.3335 191.244 10.5073 191.613 10.7886 191.863C11.0698 192.109 11.4409 192.232 11.9019 192.232C12.4058 192.232 12.8003 192.061 13.0854 191.717C13.3745 191.373 13.519 190.898 13.519 190.293C13.519 189.723 13.3628 189.266 13.0503 188.922C12.7417 188.574 12.3296 188.4 11.814 188.4C11.3413 188.4 10.9702 188.504 10.7007 188.711L10.4136 188.945L9.54639 188.723ZM18.1538 189.818H15.2944V188.934H18.1538V189.818ZM20.6792 188.207H21.4937C22.0054 188.199 22.4077 188.064 22.7007 187.803C22.9937 187.541 23.1401 187.188 23.1401 186.742C23.1401 185.742 22.6421 185.242 21.646 185.242C21.1772 185.242 20.8022 185.377 20.521 185.646C20.2437 185.912 20.105 186.266 20.105 186.707H19.021C19.021 186.031 19.2671 185.471 19.7593 185.025C20.2554 184.576 20.8843 184.352 21.646 184.352C22.4507 184.352 23.0815 184.564 23.5386 184.99C23.9956 185.416 24.2241 186.008 24.2241 186.766C24.2241 187.137 24.103 187.496 23.8608 187.844C23.6226 188.191 23.2964 188.451 22.8823 188.623C23.3511 188.771 23.7124 189.018 23.9663 189.361C24.2241 189.705 24.353 190.125 24.353 190.621C24.353 191.387 24.103 191.994 23.603 192.443C23.103 192.893 22.4526 193.117 21.6519 193.117C20.8511 193.117 20.1987 192.9 19.6948 192.467C19.1948 192.033 18.9448 191.461 18.9448 190.75H20.0347C20.0347 191.199 20.1812 191.559 20.4741 191.828C20.7671 192.098 21.1597 192.232 21.6519 192.232C22.1753 192.232 22.5757 192.096 22.853 191.822C23.1304 191.549 23.269 191.156 23.269 190.645C23.269 190.148 23.1167 189.768 22.812 189.502C22.5073 189.236 22.0679 189.1 21.4937 189.092H20.6792V188.207ZM30.4175 190.135H31.6011V191.02H30.4175V193H29.3276V191.02H25.4429V190.381L29.2632 184.469H30.4175V190.135ZM26.6733 190.135H29.3276V185.951L29.1987 186.186L26.6733 190.135Z" fill="#8794BA"/>
<path d="M5.87256 249H4.78271V241.775L2.59717 242.578V241.594L5.70264 240.428H5.87256V249ZM14.2222 242.695C14.2222 243.121 14.1089 243.5 13.8823 243.832C13.6597 244.164 13.3569 244.424 12.9741 244.611C13.4194 244.803 13.771 245.082 14.0288 245.449C14.2905 245.816 14.4214 246.232 14.4214 246.697C14.4214 247.436 14.1714 248.023 13.6714 248.461C13.1753 248.898 12.521 249.117 11.7085 249.117C10.8882 249.117 10.23 248.898 9.73389 248.461C9.2417 248.02 8.99561 247.432 8.99561 246.697C8.99561 246.236 9.12061 245.82 9.37061 245.449C9.62451 245.078 9.97412 244.797 10.4194 244.605C10.0405 244.418 9.7417 244.158 9.52295 243.826C9.3042 243.494 9.19482 243.117 9.19482 242.695C9.19482 241.977 9.42529 241.406 9.88623 240.984C10.3472 240.562 10.9546 240.352 11.7085 240.352C12.4585 240.352 13.064 240.562 13.5249 240.984C13.9897 241.406 14.2222 241.977 14.2222 242.695ZM13.3374 246.674C13.3374 246.197 13.1851 245.809 12.8804 245.508C12.5796 245.207 12.1851 245.057 11.6968 245.057C11.2085 245.057 10.8159 245.205 10.519 245.502C10.2261 245.799 10.0796 246.189 10.0796 246.674C10.0796 247.158 10.2222 247.539 10.5073 247.816C10.7964 248.094 11.1968 248.232 11.7085 248.232C12.2163 248.232 12.6147 248.094 12.9038 247.816C13.1929 247.535 13.3374 247.154 13.3374 246.674ZM11.7085 241.242C11.2827 241.242 10.937 241.375 10.6714 241.641C10.4097 241.902 10.2788 242.26 10.2788 242.713C10.2788 243.146 10.4077 243.498 10.6655 243.768C10.9272 244.033 11.2749 244.166 11.7085 244.166C12.1421 244.166 12.4878 244.033 12.7456 243.768C13.0073 243.498 13.1382 243.146 13.1382 242.713C13.1382 242.279 13.0034 241.926 12.7339 241.652C12.4644 241.379 12.1226 241.242 11.7085 241.242ZM18.1538 245.818H15.2944V244.934H18.1538V245.818ZM24.6929 249H19.103V248.221L22.0562 244.939C22.4937 244.443 22.7944 244.041 22.9585 243.732C23.1265 243.42 23.2104 243.098 23.2104 242.766C23.2104 242.32 23.0757 241.955 22.8062 241.67C22.5366 241.385 22.1772 241.242 21.728 241.242C21.189 241.242 20.769 241.396 20.4683 241.705C20.1714 242.01 20.0229 242.436 20.0229 242.982H18.939C18.939 242.197 19.1909 241.562 19.6948 241.078C20.2026 240.594 20.8804 240.352 21.728 240.352C22.521 240.352 23.1479 240.561 23.6089 240.979C24.0698 241.393 24.3003 241.945 24.3003 242.637C24.3003 243.477 23.7651 244.477 22.6948 245.637L20.4097 248.115H24.6929V249ZM30.4175 246.135H31.6011V247.02H30.4175V249H29.3276V247.02H25.4429V246.381L29.2632 240.469H30.4175V246.135ZM26.6733 246.135H29.3276V241.951L29.1987 242.186L26.6733 246.135Z" fill="#8794BA"/>
<path d="M42.8706 7H299.371C302.408 7 304.871 9.46243 304.871 12.5C304.871 15.5376 302.408 18 299.371 18H42.8706V7Z" fill="#EF2A82"/>
<path d="M42.8706 64H212.371C215.408 64 217.871 66.4624 217.871 69.5C217.871 72.5376 215.408 75 212.371 75H42.8706V64Z" fill="#EF2A82"/>
<path d="M42.8706 121H53.3706C56.4082 121 58.8706 123.462 58.8706 126.5C58.8706 129.538 56.4082 132 53.3706 132H42.8706V121Z" fill="#EF2A82"/>
<path d="M42.8706 178H85.3706C88.4082 178 90.8706 180.462 90.8706 183.5C90.8706 186.538 88.4082 189 85.3706 189H42.8706V178Z" fill="#EF2A82"/>
<path d="M42.8706 235H245.371C248.408 235 250.871 237.462 250.871 240.5C250.871 243.538 248.408 246 245.371 246H42.8706V235Z" fill="#EF2A82"/>
<path d="M42.8706 21H185.371C188.408 21 190.871 23.4624 190.871 26.5C190.871 29.5376 188.408 32 185.371 32H42.8706V21Z" fill="#0088F0"/>
<path d="M42.8706 78H245.371C248.408 78 250.871 80.4624 250.871 83.5C250.871 86.5376 248.408 89 245.371 89H42.8706V78Z" fill="#0088F0"/>
<path d="M42.8706 135H85.3706C88.4082 135 90.8706 137.462 90.8706 140.5C90.8706 143.538 88.4082 146 85.3706 146H42.8706V135Z" fill="#0088F0"/>
<path d="M42.8706 192H376.371C379.408 192 381.871 194.462 381.871 197.5C381.871 200.538 379.408 203 376.371 203H42.8706V192Z" fill="#0088F0"/>
<path d="M42.8706 249H433.371C436.408 249 438.871 251.462 438.871 254.5C438.871 257.538 436.408 260 433.371 260H42.8706V249Z" fill="#0088F0"/>
</svg>
